# xmcd
#
# Track frame offsets:
#	150
#	11687
#	23932
#	35570
#	49107
#	62545
#	74772
#	87347
#	98904
#	110187
#	123557
#	140807
#	157217
#	169765
#	186987
#	204270
#	218167
#	228204
#	241039
#	252544
#	264662
#	275677
#	289949
#	301872
#	313795
#	327002
#	337945
#
# Disc length: 4709 seconds
#
# Revision: 1
# Processed by: cddbd v1.5.1PL2 Copyright (c) Steve Scherf et al.
# Submitted via: audiograbber 1.83.01
#
DISCID=9d12631b
DTITLE=Various Artist - Custom Music CD
DYEAR=1900
DGENRE=
TTITLE0=Crazy Arms
TTITLE1=I've Got A New Heartache
TTITLE2=My Shoes Keep Walking Back To You
TTITLE3=City Lights
TTITLE4=Heartaches By The Number
TTITLE5=The Same Old Me
TTITLE6=One More Time
TTITLE7=Make The World Go Away
TTITLE8=Burnies Memories
TTITLE9=The Other Woman
TTITLE10=For The Good Times
TTITLE11=I Won't Mention It Again
TTITLE12=I'd Rather Be Sorry
TTITLE13=She's Got To Be A Saint
TTITLE14=You're The Best Thing That Ever Happened To Me
TTITLE15=Danny Boy
TTITLE16=Its Only Make Believe
TTITLE17=Next In Line
TTITLE18=I Love You More Today
TTITLE19=To See My Angel Cry
TTITLE20=Hello Darlin'
TTITLE21=Fifteen Years Ago
TTITLE22=After The Fire Is Gone
TTITLE23=After The Fire Is Gone
TTITLE24=How Much More Can She Stand
TTITLE25=Lead Me On
TTITLE26=(Lost Her Love) On Our Last Date
EXTD=
EXTT0=
EXTT1=
EXTT2=
EXTT3=
EXTT4=
EXTT5=
EXTT6=
EXTT7=
EXTT8=
EXTT9=
EXTT10=
EXTT11=
EXTT12=
EXTT13=
EXTT14=
EXTT15=
EXTT16=
EXTT17=
EXTT18=
EXTT19=
EXTT20=
EXTT21=
EXTT22=
EXTT23=
EXTT24=
EXTT25=
EXTT26=
PLAYORDER=
